<svg width="8" height="8" viewBox="0 0 8 8" fill="none" xmlns="http://www.w3.org/2000/svg">
<path d="M0.239997 7.76C0.315995 7.83609 0.406244 7.89644 0.505585 7.93762C0.604925 7.9788 0.711408 8 0.818946 8C0.926483 8 1.03297 7.9788 1.13231 7.93762C1.23165 7.89644 1.3219 7.83609 1.39789 7.76L4.00009 5.1578L6.60229 7.76C6.75584 7.91355 6.9641 7.99981 7.18124 7.99981C7.39839 7.99981 7.60665 7.91355 7.76019 7.76C7.91374 7.60646 8 7.3982 8 7.18105C8 6.96391 7.91374 6.75565 7.76019 6.60211L5.15799 3.99991L7.76019 1.39771C7.91374 1.24416 8 1.0359 8 0.818757C8 0.601609 7.91374 0.393355 7.76019 0.239808C7.60665 0.0862616 7.39839 1.61788e-09 7.18124 0C6.9641 -1.61788e-09 6.75584 0.0862616 6.60229 0.239808L4.00009 2.84201L1.39789 0.239808C1.32187 0.16378 1.23161 0.103471 1.13227 0.0623242C1.03293 0.0211778 0.926466 0 0.818946 0C0.711425 0 0.604957 0.0211778 0.505621 0.0623242C0.406285 0.103471 0.316026 0.16378 0.239997 0.239808C0.0864502 0.393355 0.00018866 0.601609 0.00018866 0.818757C0.00018866 1.0359 0.0864502 1.24416 0.239997 1.39771L2.8422 3.99991L0.239997 6.60211C0.163914 6.6781 0.103557 6.76835 0.0623767 6.86769C0.0211962 6.96703 0 7.07352 0 7.18105C0 7.28859 0.0211962 7.39507 0.0623767 7.49441C0.103557 7.59376 0.163914 7.684 0.239997 7.76Z" fill="#FAFAFA"/>
</svg>
